<svg xmlns="http://www.w3.org/2000/svg" width="110" height="71.259" viewBox="0 0 110.1 71.29"><defs><style>.cls-1{fill:#fff;}</style></defs><g id="Layer_2" data-name="Layer 2"><g id="Layer_1-2" data-name="Layer 1"><path class="cls-1" d="M42.58,63.87,39,58.77a.3.3,0,0,1,.09-.4.29.29,0,0,1,.16,0h1.14a.41.41,0,0,1,.24.15l2.77,3.9,2.77-3.9a.41.41,0,0,1,.25-.15h1.13a.3.3,0,0,1,.3.29.27.27,0,0,1,0,.15l-3.61,5.1v4.84a.32.32,0,0,1-.3.3h-1a.32.32,0,0,1-.3-.3V63.87Zm4.59,4.74,4.7-10.28a.33.33,0,0,1,.24-.15h.15a.44.44,0,0,1,.25.15l4.65,10.28a.28.28,0,0,1-.11.37.32.32,0,0,1-.14,0H56a.33.33,0,0,1-.35-.24l-.94-2.08h-5c-.3.69-.64,1.38-.94,2.08a.38.38,0,0,1-.34.24h-.94c-.3,0-.4-.2-.3-.4m6.92-3.21-1.88-4.2h-.1l-1.88,4.2Zm12.55-6.77a.32.32,0,0,1,.3-.3h1a.32.32,0,0,1,.3.3v6.28a2.55,2.55,0,1,0,5.09.34,2.71,2.71,0,0,0,0-.29V58.63a.28.28,0,0,1,.26-.3h1.07a.32.32,0,0,1,.3.3v6.43a4.15,4.15,0,1,1-8.3,0V58.63Zm-8.42,8.85c.14-.2.24-.45.4-.64s.34-.25.49-.1a4.43,4.43,0,0,0,2.42,1,1.55,1.55,0,0,0,1.73-1.36v-.07c0-.94-.79-1.48-2.32-2.13S58.17,62.73,58.17,61c0-1.19.94-2.82,3.36-2.82a5.23,5.23,0,0,1,2.82.89.38.38,0,0,1,.1.5,3.83,3.83,0,0,1-.4.59.36.36,0,0,1-.46.2l-.08,0a4.87,4.87,0,0,0-2.08-.74c-1.29,0-1.73.79-1.73,1.38,0,.89.69,1.38,1.93,1.93,1.78.69,3.26,1.53,3.26,3.41,0,1.58-1.43,2.87-3.41,2.87A5,5,0,0,1,58.22,68a.41.41,0,0,1,0-.49m19.26-8.85a.28.28,0,0,1,.27-.3h4.18a3.26,3.26,0,0,1,3.31,3.23v0A3.45,3.45,0,0,1,83,64.71L85,68.56A.28.28,0,0,1,85,69a.3.3,0,0,1-.15.05H83.61a.41.41,0,0,1-.25-.15l-2-4H79v3.9a.32.32,0,0,1-.3.3h-1a.32.32,0,0,1-.3-.3V58.63Zm4.3,4.89a1.85,1.85,0,0,0,0-3.7H79.06v3.7Zm3.94,5.09,4.7-10.28a.37.37,0,0,1,.25-.15h.14a.41.41,0,0,1,.25.15l4.65,10.28a.28.28,0,0,1-.11.37.32.32,0,0,1-.14,0h-.94a.32.32,0,0,1-.34-.24l-.94-2.08h-5c-.3.69-.64,1.38-.94,2.08A.37.37,0,0,1,87,69H86c-.25,0-.4-.2-.3-.4m6.92-3.21-1.88-4.2h-.1l-1.88,4.2Zm9.49-7.22a5.5,5.5,0,0,1,3.71,1.43.33.33,0,0,1,0,.45h0q-.33.36-.69.69c-.1.15-.25.1-.4,0a4.09,4.09,0,0,0-2.57-1,4,4,0,0,0,0,7.91,4.48,4.48,0,0,0,2.27-.54V64.21H106v3.71a.46.46,0,0,1-.1.25,7.87,7.87,0,0,1-3.76,1,5.49,5.49,0,1,1,0-11m6.38.45a.32.32,0,0,1,.3-.3h1a.32.32,0,0,1,.3.3V68.71a.31.31,0,0,1-.3.3h-1a.31.31,0,0,1-.3-.3ZM96.7,47.71c0-.1,0-.2,0-.3a.39.39,0,0,1-.05-.24v-.53c0-.15.05-.2,0-.3a.19.19,0,0,0,0-.14c0-.05,0-.1,0-.15v-.39c0-.1,0-.24,0-.39s0-.34,0-.48a.78.78,0,0,0,0-.34,1.64,1.64,0,0,0-.1-.49,1.59,1.59,0,0,1-.1-.39.76.76,0,0,1,0-.34,1.58,1.58,0,0,0-.1-.43,1.86,1.86,0,0,1-.1-.39.77.77,0,0,1-.1-.29,1.09,1.09,0,0,1-.1-.25c0-.14-.14-.19-.19-.29s0-.1-.1-.15-.05-.1-.1-.19a1.86,1.86,0,0,0-.1-.39,1.43,1.43,0,0,0-.15-.39,2.16,2.16,0,0,0-.24-.48c-.1-.2-.14-.34-.24-.54L94.44,39a.9.9,0,0,0-.15-.19c-.05-.05-.05-.1-.1-.15a1,1,0,0,1-.14-.24.94.94,0,0,0-.2-.29,1,1,0,0,0-.24-.29,2.82,2.82,0,0,1-.29-.39,1.58,1.58,0,0,0-.34-.29c-.14-.15-.34-.3-.53-.49a4.1,4.1,0,0,1-.53-.49,5.66,5.66,0,0,0-.54-.43,7.47,7.47,0,0,1-.77-.59,7.06,7.06,0,0,0-.73-.48c-.24-.15-.48-.34-.68-.44a2.1,2.1,0,0,0-.53-.29,3.75,3.75,0,0,0-.44-.24,3.7,3.7,0,0,0-.43-.25c-.15-.1-.39-.14-.54-.24a5.79,5.79,0,0,1-.68-.29l-.29-.15c-.25-.09-.51-.17-.77-.24h0s-.15-.1-.2-.1-.24-.1-.39,0-.34-.15-.38-.15a5.9,5.9,0,0,1-.93-.19h-.19s-.48-.1-.53,0l0,0s0,0-.1,0a.12.12,0,0,1-.1-.05h-.1a7.64,7.64,0,0,1-1.07-.14c-.1,0-.19,0-.29,0a1.07,1.07,0,0,0-.39.14c0,.05,0,.05,0,.1a5.79,5.79,0,0,1-1,0h-.24s-.1-.05-.14-.05h-.2l-.68,0s0,0-.1,0-.82,0-1.11,0H75.16a3.48,3.48,0,0,0-.72,0c-.24.05-.58.05-.83.1s-.34.05-.48.05a1.74,1.74,0,0,0-.39,0,9,9,0,0,1-1.16.15l-1.17.24a6.6,6.6,0,0,1-.87.15c-.1,0-.19.05-.29.05s-.15,0-.24,0A8.3,8.3,0,0,1,68,33c-.05,0,.19-.24.24-.29a.41.41,0,0,1,.19,0h-.19l0,0s0,0-.1,0l-.24,0a.59.59,0,0,0-.29.1l-.29.14a1,1,0,0,1-.39,0s-1.31.39-1.41.39-.43.1-.48.15a.52.52,0,0,0-.34.14c0,.05-.24.05-.29.05s-.63.25-.63.25h-.15l-.24,0a2.31,2.31,0,0,1-.63.2l-.44.14c-.14,0-.24,0-.29.1s-.34.15-.38.15a.7.7,0,0,0-.25,0c-.14.06-.29.1-.43.15a4.93,4.93,0,0,1-.54.19l-.38.15c-.15,0-.34.14-.54.19a5.05,5.05,0,0,0-.53.24l-.44.15a1.66,1.66,0,0,0-.43.19,5.41,5.41,0,0,1-.78.34,10.28,10.28,0,0,0-1.26.59,5.82,5.82,0,0,0-.77.34,4.44,4.44,0,0,0-.49.24,1.89,1.89,0,0,0-.44.19c-.14,0-.29.15-.58.25l-1,.48c-.29.15-.43.24-.68.39a11.88,11.88,0,0,0-1,.68q-.57.42-1.17.78a2.94,2.94,0,0,1-.63.34.69.69,0,0,1-.24,0h-.15a.16.16,0,0,0-.14,0h0c-.05,0-.15,0-.2,0H48.4a.46.46,0,0,1-.2,0c-.1,0-.24-.05-.34-.05a.63.63,0,0,1-.29-.1c-.14,0-.34-.1-.53-.15a4.42,4.42,0,0,0-.73-.1c-.24,0-.39,0-.58,0a4.46,4.46,0,0,0-.82,0h-.54c-.24,0-.48.1-.77.1a2.68,2.68,0,0,1-.63.05h-.39c-.15,0-.29,0-.44,0H41.8c-.14,0-.29,0-.48,0a3.7,3.7,0,0,0-.58.1c-.25.05-.54.1-.88.2a7.8,7.8,0,0,0-.92.29,2.27,2.27,0,0,0-.63.34c-.19.1-.29.19-.53.34a9.49,9.49,0,0,0-.83.58c-.29.19-.48.29-.67.44a5.27,5.27,0,0,1-.83.48c-.39.2-1,.54-1.4.73a6.59,6.59,0,0,1-.83.44,1,1,0,0,1-.34.15.31.31,0,0,1-.19,0c0-.14,0-.24,0-.38a.79.79,0,0,1,0-.3c0-.1-.05-.24-.05-.34s0-.14,0-.24a.64.64,0,0,0,0-.24c0-.1-.05-.2-.05-.29a1,1,0,0,1,.05-.34v-1.6a.2.2,0,0,1,0-.15s0-.1.1-.1,0-.15,0-.24a.19.19,0,0,1,0-.15c0-.05,0-.05,0-.1a.41.41,0,0,1,.05-.19.86.86,0,0,1,.15-.44,1,1,0,0,1,.19-.34c.05-.1.1-.1.1-.15s0,0,0-.1l.05-.05s-.05-.09-.05-.19,0,0,.05-.1a.71.71,0,0,0,.1-.14,2.35,2.35,0,0,1,.19-.39,2.55,2.55,0,0,1,.24-.39.82.82,0,0,1,.2-.25,2.69,2.69,0,0,0,.19-.38,2.35,2.35,0,0,1,.19-.39.56.56,0,0,1,.1-.15c0-.05,0-.1.1-.19a2.6,2.6,0,0,0,.1-.25.16.16,0,0,0,.05-.14s0-.1,0-.15.05,0,.1-.14.19-.34.29-.54a3.75,3.75,0,0,1,.24-.44,1,1,0,0,0,.15-.24.52.52,0,0,1,.14-.19c0-.1.1-.1.2-.15s0-.1.1-.19.1-.15.14-.25a1,1,0,0,0,.2-.29,3.37,3.37,0,0,0,.1-.34.77.77,0,0,0,.1-.29.51.51,0,0,0,0-.24c0-.1,0-.15.1-.2s.05-.1.1-.1.1,0,.15-.1.05-.05.1-.1.05-.1.1-.24a1,1,0,0,0,0-.34c0-.1,0-.19,0-.29a1.31,1.31,0,0,1,0-.39v-.34c0-.05,0-.05-.05-.05s0-.05-.1-.05-.14-.1-.19-.15a.34.34,0,0,1-.2-.19l-.14-.15a.06.06,0,0,1,0-.09h0v-.14a.48.48,0,0,0-.1-.29L36,28.64c-.1-.15-.19-.19-.24-.29a.84.84,0,0,0-.23-.23l-.34-.19a1.9,1.9,0,0,1-.34-.2,1,1,0,0,1-.24-.1c-.1,0-.15,0-.25,0a1,1,0,0,0-.34-.1h-.14a.27.27,0,0,1-.15,0h-.19s-.1,0-.19,0a.7.7,0,0,1-.29,0h-.25a2.09,2.09,0,0,0-.43,0l-.68.15c-.2.05-.29.1-.49.15l-.53.19-.44.15c-.14,0-.38.14-.58.19a1.33,1.33,0,0,1-.34.1c-.1,0-.14.05-.19.05H29c-.05,0-.1,0-.15,0a0,0,0,0,1,0,0h-.15c-.05,0-.05,0-.05-.05l-.05-.05s-.1-.05-.14-.05-.15-.05-.19-.05-.05-.1-.1-.1-.05-.1-.15-.14a1.87,1.87,0,0,0-.34-.29.61.61,0,0,0-.24-.15.56.56,0,0,0-.15-.1l-.1-.1a.22.22,0,0,0-.1-.15L26.81,27c-.1-.1-.14-.19-.19-.24s-.05-.05-.1-.05h-.05s-.1-.1-.1-.15-.1-.05-.14-.1-.05-.05-.1-.1-.05,0-.05-.1,0-.1-.1-.1a1.32,1.32,0,0,0-.29-.19c-.05-.05-.1-.1-.1-.15s-.1-.05-.2-.1a2.31,2.31,0,0,1-.14-.19c-.05-.05-.05-.1-.1-.1s0,0-.1,0H25c-.05,0-.1-.05-.15-.1s-.05-.05-.05-.1,0,0,0-.1-.1-.05-.15-.05l0-.05c0-.05-.14,0-.19-.1s-.05-.05-.1-.1-.1-.05-.1-.1a.24.24,0,0,1-.1-.19c0-.05,0-.05-.05-.1l-.1-.1a.79.79,0,0,1-.19-.25c-.1-.1-.15-.19-.2-.24a.18.18,0,0,1,0-.14v-.2l-.05-.05c0-.05-.05-.05-.05-.14v-.25a.16.16,0,0,0-.05-.14v-.1a1.46,1.46,0,0,1,.1-.34c0-.05.05-.14.05-.19s0-.1.1-.1a.72.72,0,0,0,.14-.2c.1-.14.3-.34.39-.48a1.09,1.09,0,0,1,.24-.24.75.75,0,0,1,.2-.15c0-.05.1-.05.1-.1s.05-.05.1-.1a2.26,2.26,0,0,1,.39-.15c0-.05.14-.05.19-.1s.15-.1.19-.14a3.73,3.73,0,0,0,.39-.25l.39-.19c.1-.05.15-.1.19-.1l.3-.15s.1,0,.14,0h.19c.05,0,.1-.05.15-.05h.17s0-.05.1-.05l.1-.1c0-.05.19-.15.29-.25a.71.71,0,0,1,.29-.14c.09-.05.19-.05.24-.1l.1-.1c0-.05.05-.05.1-.1a1,1,0,0,1,.24-.15l.29-.14c.05-.05.1-.05.15-.1a.4.4,0,0,0,.1-.15.88.88,0,0,1,.24-.19,3.39,3.39,0,0,1,.53-.2c.1,0,.15-.05.24-.1s.1-.05.2-.1.14-.05.24-.1.19-.05.29-.1a1,1,0,0,0,.39-.24,2.9,2.9,0,0,0,.29-.19A.9.9,0,0,1,32,17a1.28,1.28,0,0,1,.25-.15.88.88,0,0,0,.24-.19,1.61,1.61,0,0,0,.39-.39c0-.05.14-.1.24-.19a1.2,1.2,0,0,0,.24-.15l.15-.15s.14-.1.19-.14a.91.91,0,0,0,.24-.2c.1-.1.24-.19.39-.34a2.19,2.19,0,0,0,.34-.34.75.75,0,0,0,.19-.24c.05-.1.15-.14.2-.24l.19-.2c.05,0,.15-.1.19-.14s.1-.1.1-.15a.47.47,0,0,1,.05-.1.05.05,0,0,1,0,0h0c.05,0,.05,0,.1-.05l.19-.19a2.43,2.43,0,0,0,.3-.34c.1-.15.19-.24.29-.39a1,1,0,0,0,.19-.29,1.12,1.12,0,0,1,.19-.24,3.17,3.17,0,0,0,.3-.34c.1-.15.19-.25.29-.39a1.58,1.58,0,0,1,.29-.34.77.77,0,0,0,.19-.34l.29-.44c.1-.15.1-.24.15-.29s.1-.15.14-.24a.29.29,0,0,0,0-.2.14.14,0,0,1,0-.1c.05-.05.05-.1.1-.14s.05-.05.05-.1v-.1s0-.1.1-.2a1.38,1.38,0,0,0,.14-.24,3.26,3.26,0,0,0,.15-.44,3.1,3.1,0,0,0,.1-.68,4.58,4.58,0,0,0,.1-.63,1,1,0,0,0,0-.34c0-.1.05-.15.05-.2a.25.25,0,0,0,0-.19V6c0-.1.05-.19.05-.34s0-.14,0-.29-.15-.24-.24-.44-.15-.43-.25-.63S39,4,38.91,3.86a1.67,1.67,0,0,0-.16-.24c0-.05,0-.1-.1-.14a.31.31,0,0,1-.1-.15c0-.05,0-.15-.1-.29s-.09-.26-.15-.39a.33.33,0,0,1,0-.15,0,0,0,0,0,0,0h0s0,0,0-.1v-.1s0,0-.1-.1a.12.12,0,0,1-.05-.1s0-.1,0-.14-.05,0-.1-.1-.1-.05-.14-.1a2.43,2.43,0,0,1-.3-.34A2.05,2.05,0,0,0,37,1c0-.05-.15-.1-.2-.15a.16.16,0,0,1-.05-.1c0-.05,0-.1,0-.1A.27.27,0,0,0,36.6.63c-.05,0-.1,0-.19,0s-.2,0-.29-.15S36,.29,35.87.25a.91.91,0,0,0-.24-.2.09.09,0,0,0-.13,0s0,0,0,0-.05.05-.1.05-.1,0-.15-.1c-.05.58-.14.44-.14.29-.05,0-.05,0-.1.05a.22.22,0,0,0-.1.15.7.7,0,0,0-.15.19,1,1,0,0,1-.29.24,1.16,1.16,0,0,1-.29.25,2.82,2.82,0,0,1-.39.29,2.93,2.93,0,0,0-.48.39c-.15.1-.2.19-.29.24a1.82,1.82,0,0,1-.25.19c-.1.1-.19.1-.24.15s-.05,0-.1.1a.85.85,0,0,0-.19.19,1,1,0,0,0-.24.15s-.1.1-.15.1l-.1.1a.85.85,0,0,0-.19.19l-.2.2c-.05,0-.05.1-.1.1s-.05,0-.1,0-.1.05-.14.14-.1.15-.2.2-.14.14-.24.19-.19.15-.24.24l-.15.15s-.14.1-.19.19l-.14.15c-.1.1-.15.1-.25.19l-.1.1s0,.1-.1.1,0,0-.1,0h0c-.05.05-.05.05-.05.1s-.1.1-.15.1a.06.06,0,0,0,0,0h0a0,0,0,0,1,0,.05h0a.16.16,0,0,1-.1,0,.14.14,0,0,0-.05.1s-.05.1-.05.15a.16.16,0,0,1-.05.1s0,0-.1,0-.05.05-.14.1a3.21,3.21,0,0,0-.34.24c-.1.1-.15.19-.2.24a.73.73,0,0,0-.19.2s-.05,0-.05.1-.1,0-.14,0a.15.15,0,0,0-.1,0c-.05,0-.05,0-.05.1s0,0-.05.1l-.14.15-.15.15c-.05,0-.05,0-.05.1s0,.1,0,.1-.05,0-.1,0l-.1.1c-.05,0-.05.1-.1.1s-.1.1-.15.1l-.14.14c-.05,0-.1.1-.1.15v.05c0,.05-.05.05-.1.1L26,8.66c-.05.05-.1.15-.19.2s-.15.14-.2.24-.1.15-.14.19-.05.1-.1.15a.14.14,0,0,1-.1.05s0,0-.1,0v.1s0,0-.1.14a1.93,1.93,0,0,1-.29.34c-.05.1-.1.1-.15.15s-.05.05-.1.05v.1c0,.05,0,.05-.05.1a.19.19,0,0,1-.14.05.17.17,0,0,0-.15,0s0,.05,0,.05v.1a.18.18,0,0,1,0,.14l-.15.15c-.05,0-.05.1-.1.1s-.05.05-.1.1-.05.05-.05.1,0,.05-.05.1a.19.19,0,0,1-.1.14c-.05.05-.1.1-.1.15s0,.1-.1.15a1.33,1.33,0,0,0-.14.19,1,1,0,0,1-.15.24.12.12,0,0,1-.1.05H23a0,0,0,0,0,0,0h0v.1c0,.05-.1.15-.1.19v0c0,.05,0,.05-.1.1s-.05.05-.1.05v.2c0,.05-.05.05-.1.05s-.1,0-.1.1v.24c-.05.05-.1.19-.15.24s-.05.1-.1.1-.05.1-.1.15,0,.05,0,.1a1.28,1.28,0,0,0-.14.34c-.05.05-.05.14-.1.19a.63.63,0,0,0-.1.29.77.77,0,0,0-.1.25c-.05.05-.05.05-.05.1v.1c0,.05,0,.05-.05.1s0,.1-.1.14a2.44,2.44,0,0,0-.14.34c-.05.15-.15.29-.2.44a1.55,1.55,0,0,1-.14.29c-.05.1-.1.2-.2.44s-.24.58-.33.87-.15.49-.2.68a2.82,2.82,0,0,0-.14.64c-.05.19-.05.29-.1.43s-.05.34-.1.44a.42.42,0,0,0-.05.24.43.43,0,0,0-.05.25.16.16,0,0,1,0,.14c0,.05-.05.1-.05.2a2,2,0,0,0,0,.24c0,.1,0,.24,0,.34a.58.58,0,0,1-.05.29c0,.1-.05.15-.05.2s-.05.1-.05.19a2,2,0,0,0,0,.24c0,.1-.05.25-.05.34s-.05.15-.05.2,0,.14,0,.19-.05.05-.05.15a.7.7,0,0,1,0,.29v.44s0,0,0,.1.1.1.05.1a0,0,0,0,1,0,0h0c0,.05,0,.1,0,.2v.1c0,.05,0,.1,0,.14s.15.25.15.39v.25s0,0,.05,0a.23.23,0,0,1,.05.1,2,2,0,0,1,0,.24c0,.1.05.19.05.29a.88.88,0,0,0,.05.39.72.72,0,0,1,.14.24,3.79,3.79,0,0,0,.2.34c.1.15.24.39.39.59a5.25,5.25,0,0,0,.43.53,1.37,1.37,0,0,1,.29.39,1,1,0,0,1,.2.29,2.43,2.43,0,0,1,.14.2.91.91,0,0,0,.2.24l.1.1s0,.05,0,.05h0a0,0,0,0,1,.05,0h0a.12.12,0,0,1,.05.1c0,.05,0,.05.1.1s.05.05.1.05v.1a0,0,0,0,1,.05,0h0s0,0,0,.1,0,.05,0,.05a.12.12,0,0,0,.1.05.24.24,0,0,1,.1.05v.15a.1.1,0,0,0,.1.1s.1.1.1.14-.05.15-.05.2.05,0,.1.1,0,.1.1.1.05.1.1.14v.1c0,.05.05.1.1.2a.19.19,0,0,1,0,.14c-.05.05,0,.1,0,.15s0,.1,0,.14a.24.24,0,0,1,.05.1c0,.05-.05.1-.05.15s0,.1,0,.15-.1.14-.1.19v.1s0,0-.15.1-.29.19-.48.29-.36.22-.53.34a3.33,3.33,0,0,0-.49.29.8.8,0,0,1-.29.15c-.15.1-.39.19-.63.34s-.44.29-.63.39a4.85,4.85,0,0,0-.49.29l-.63.44c-.38.29-1,.73-1.35,1s-.44.29-.59.39-.33.29-.48.39a1.68,1.68,0,0,0-.29.24s-.15.1-.2.2a1.28,1.28,0,0,0-.29.24.67.67,0,0,0-.19.14c-.05.05-.15.1-.19.15l-.15.15-.14.14c0,.05-.1.05-.15.15a2.17,2.17,0,0,1-.29.24,1.09,1.09,0,0,1-.29.24c-.15.15-.24.2-.39.34a.74.74,0,0,0-.19.2l-.29.29c-.1.1-.3.24-.44.39s-.29.24-.44.39-.38.39-.58.53l-.43.44-.54.54-.82.82c-.24.29-.49.49-.63.68s-.29.29-.39.44l-.34.34-.14.19L8,44.53l-.1.1s0,0-.1,0a1.33,1.33,0,0,0-.29.29l-.87.88c-.39.38-.92.92-1.26,1.21s-.49.44-.63.58-.34.3-.49.44-.34.19-.48.29a4,4,0,0,0-.39.29,1.08,1.08,0,0,1-.29.2,2.55,2.55,0,0,0-.39.24,5.47,5.47,0,0,0-.63.44c-.2.14-.39.24-.53.34l-.3.19a1.5,1.5,0,0,0-.24.2c-.05,0-.1,0-.1.1s-.05,0-.1.05a.73.73,0,0,0-.19.14,1.37,1.37,0,0,0-.29.24c0,.25,0,.44-.1.59s0,.19,0,.29v.24a.12.12,0,0,0,0,.1v.29s0,.1,0,.15-.05,0-.1,0-.1,0-.1.05v.29s0,0,.05,0A.05.05,0,0,1,.1,53h0a2.59,2.59,0,0,1,.14.29c0,.1,0,.19,0,.29s0,.1,0,.2.05.14.1.19.1.15.14.19,0,.1.1.15l.15.15s0,.05,0,.1,0,.1,0,.14.05.1.1.15.2.1.3.19.1.1.1.15,0,.1.1.14.1.1.19.15.05,0,.1,0a.19.19,0,0,1,.05.1l.1.1c.1,0,.14.15.19.19a.16.16,0,0,1,0,.1c.05.1.14.1.19.15s.1.05.15.1l.19.19c0,.1.15.2.2.3A1,1,0,0,0,3,57s0,0,.1,0a.35.35,0,0,1,.2,0s0,.05.1.05a.62.62,0,0,0,.33,0s.11,0,.2.1.1.1.14.1a.23.23,0,0,0,.25,0l.14-.15A.9.9,0,0,0,4.63,57a.92.92,0,0,1,.19-.25L5,56.57s0-.1.1-.1.1,0,.14-.1.1,0,.19,0a.7.7,0,0,0,.25,0H6.4a7.39,7.39,0,0,1,.92.1,3.77,3.77,0,0,0,.58.14c.24.1.63.2.92.34a4.11,4.11,0,0,1,.82.39c.34.2.83.44,1.22.64s.58.34.87.53a7.31,7.31,0,0,1,1,.58l1,.64c.24.14.38.24.68.43s.63.44.82.59.34.24.44.29.19.14.24.19a.19.19,0,0,1,0,.1v.1l.14.15c.05.05.1.1.1.14s0,.1,0,.2v.1a.14.14,0,0,1,.1,0,.1.1,0,0,1,.1.1.06.06,0,0,1,0,.09h0v.1s.1,0,.14.14a.39.39,0,0,1,.1.25.9.9,0,0,0,.15.19l.1.1c.05,0,.1,0,.14.1s.1.05.15.05,0,.1,0,.14a.12.12,0,0,0,.1,0c.05,0,.05.05.1.05s.1.1.1.15.1.1.1.14.05,0,.1,0l.05,0a.25.25,0,0,0,.19.05.1.1,0,0,1,.1.1l.05,0c.05,0,.05,0,.1,0s.05.1.1.15a.23.23,0,0,1,.05.1s0,0,0,.1h.1a.29.29,0,0,1,.2,0,.33.33,0,0,1,.24.1h.19c.05,0,0,.1.1.1a1.17,1.17,0,0,1,.25.1,1.28,1.28,0,0,1,.34.19,1.12,1.12,0,0,1,.33.24c.15.1.3.29.49.44a4,4,0,0,1,.48.44,5.75,5.75,0,0,1,.49.39c.24.19.53.53.82.77a8.18,8.18,0,0,0,.68.64l.68.68.51.33.38.39c.1.1.15.1.15.1s.05,0,.1.1a.7.7,0,0,0,.19.15c.2.14.54.43.83.68a3,3,0,0,0,.38.24,3.75,3.75,0,0,0,.44.24,2.85,2.85,0,0,0,.63.25l.49.14a1.26,1.26,0,0,0,.38.1.35.35,0,0,0,.2,0c.05,0,.1.05.14.05H30c.05,0,.1-.05.15-.05h.1s0,.05.1.05h.48c.1,0,.19-.05.29-.05a.58.58,0,0,0,.29,0,.64.64,0,0,0,.34-.14c.14-.1.34-.2.53-.34a2.32,2.32,0,0,0,.44-.39l.24-.24c.07-.11.13-.23.19-.34a.17.17,0,0,0,.05-.15,0,0,0,0,1,0,0h0a.14.14,0,0,0,.1-.05s0-.1,0-.14,0-.1,0-.15a0,0,0,0,1,.05,0h0a0,0,0,0,0,0-.05h0V69s.05,0,.05-.1,0-.1.1-.14a2.43,2.43,0,0,0,.14-.2c.05,0,.1,0,.1-.1v-.24s0,0,.05-.1a.16.16,0,0,0,0-.1.4.4,0,0,0,.1-.24.19.19,0,0,0,0-.15c0-.1,0-.14.1-.24s0,0,0-.1,0-.1.05-.1a0,0,0,0,1,0,0h0s.1,0,.1-.1-.05-.05,0-.05,0,0,0-.1,0,0,0-.14v-.64c0-.1,0-.14.05-.14l.1-.1v-.58a.76.76,0,0,0,0-.34,1.37,1.37,0,0,0,0-.2c0-.1,0-.1,0-.14s0,0,0-.1v-.1a5.43,5.43,0,0,1-.1-.54.71.71,0,0,0,0-.29c-.05-.1-.05-.15-.1-.2a1.64,1.64,0,0,0-.1-.38,1.84,1.84,0,0,0,0-.25.4.4,0,0,0-.05-.24c0-.1,0-.15,0-.29s0-.29,0-.39-.05-.2-.05-.29a.63.63,0,0,1,0-.3V61c0-.1,0-.14,0-.19v-.2c0-.1-.05-.14-.05-.19s.05-.15,0-.19,0,0,0-.1V59.9s0-.1-.1-.14,0-.1,0-.15v0a.19.19,0,0,0,0-.1,1.91,1.91,0,0,1-.1-.34.84.84,0,0,1,0-.39v-.48c0-.15-.05-.24-.05-.39v-.73c0-.05,0-.1,0-.15a.45.45,0,0,1,0-.19s0-.15,0-.19v-.1s0-.1,0-.15v-.19a.12.12,0,0,0,0-.1v-.78c0-.05,0-.05,0-.1a.14.14,0,0,1-.05-.1v-.29a.35.35,0,0,0,0-.2,2,2,0,0,0,0-.48c-.05-.1-.05-.15-.1-.25v-.14s0,0,0-.1l0,0a.14.14,0,0,0-.05-.1s0-.1.05-.1,0,0,0-.1a.19.19,0,0,1,0-.1c-.05-.05-.05-.05-.05-.1V53c.05,0,.05,0,.15,0a.16.16,0,0,0,.14-.05c.05,0,.05,0,.1-.1s.05-.05.05-.1-.05-.1-.05-.15.05-.14.05-.19,0-.15,0-.19a.77.77,0,0,1,.14-.25,1.16,1.16,0,0,1,.2-.24s.1-.1.1-.15.05-.1.05-.14,0,0,.1-.1l.1-.1s0-.1.1-.2.14-.1.19-.14a.35.35,0,0,1,.19-.1l.15-.1a.14.14,0,0,0-.1,0,.09.09,0,0,1,0-.13l0,0a1.12,1.12,0,0,1,.24-.19,1.12,1.12,0,0,0,.24-.19,1.68,1.68,0,0,1,.29-.25l.2-.19.1-.1c.05,0,.05-.1.1-.1s.1,0,.19-.1.05,0,.1,0,.05,0,.1-.1l.17-.13c0-.05.1-.1.15-.1s0-.05.1-.1,0-.1.14-.14a.32.32,0,0,1,.2-.1.05.05,0,0,0,.05,0h0c0-.05-.05-.05,0-.1a0,0,0,0,0,0,0h0a1.28,1.28,0,0,1,.25-.15s.1,0,.1-.1,0-.05,0-.1,0-.05.1-.05a.15.15,0,0,0-.1,0,.21.21,0,0,0-.14.1c-.05.05-.05.1-.1.1s0,0-.1.1,0,0,0,.1H37c-.1,0-.1.1-.15.14s-.14.1-.19.15,0,0-.1,0-.1,0-.05,0a.7.7,0,0,1,.19-.15.72.72,0,0,0,.2-.14c0-.05.1-.05.1-.1s0-.1.1-.1.1-.1.19-.1a.66.66,0,0,1,.19-.15.38.38,0,0,1,.2-.1s0,0,.1,0,0-.05,0-.1,0,0,.1-.1.14-.1.19-.15a.88.88,0,0,0,.24-.19,2.19,2.19,0,0,1,.39-.29c.1-.1.19-.15.24-.2a10.64,10.64,0,0,1,.44-.34s.1-.1.1-.14,0-.1.1-.15l.1-.1c.05,0,.1,0,.1-.1a.14.14,0,0,1,.05-.1.1.1,0,0,1,.1-.1s.1,0,.1-.1l.1-.1s0,0,0,0,.05,0,.05,0v.1h0c0-.05,0-.05,0-.1l0-.05a.16.16,0,0,0,0-.1c.05,0,.1,0,.14-.1a.66.66,0,0,1,.2-.14.71.71,0,0,1,.14-.1s0,0,0-.1.1,0,.15-.1a.7.7,0,0,1,.19-.15,1,1,0,0,0,.24-.14c.1,0,.15,0,.2-.1s.1-.05.19-.1.19-.05.29-.1a2.19,2.19,0,0,1,.34-.1h.53c.25,0,.59.05.88.05a3.84,3.84,0,0,1,.68.1.91.91,0,0,0,.33,0,.46.46,0,0,1,.25.1.15.15,0,0,0,.14.05h.15s.1,0,.14.1.1.05.15.1.14,0,.24.05.1,0,.14,0,.15,0,.2,0l.24.05a1,1,0,0,1,.24.15s.1.1.15.1a1.93,1.93,0,0,1,.38.19,1.82,1.82,0,0,0,.25.19s.1,0,.1.05l.1.1a.18.18,0,0,0,0,.1c.05.05.05.05.1.05s.15.1.2.15.14.14.24.14.05,0,.1,0a0,0,0,0,1,.05.05h0a.31.31,0,0,1,0,.1,1,1,0,0,0,.24.15.1.1,0,0,1,.1.1c.05,0,.05.1.1.1s.05.05.1.05.14,0,.19.1l.1.1.1.1s0,0,.1,0,0,.05.1.05a2.49,2.49,0,0,1,.24.2c.1.05.2.14.3.19a1.11,1.11,0,0,1,.24.2c.05,0,.05,0,.05.1s0,0,0,0h0a.16.16,0,0,0,.1.05s0,0,.15.1a1.37,1.37,0,0,1,.29.25c.1.05.15.09.15.14s0,.1.1.1a.12.12,0,0,0,.1,0s0,.05.1.05.14.1.19.15.14.14.19.19.1.05.15.1.1.05.19.1.34.19.58.29l.83.34a4.23,4.23,0,0,1,.58.25,4.14,4.14,0,0,0,.49.19l.33.1c.1,0,.2,0,.3,0a.19.19,0,0,1,.14.05s.1,0,.15,0H56a4,4,0,0,0,.68,0l.34-.15L57.3,50c.1,0,.14-.1.24-.15a1.68,1.68,0,0,0,.29-.24c.1-.1.19-.25.24-.3s.1-.1.1-.14,0,0,.1,0l0-.08c0-.05.05-.1.1-.19s0-.1.1-.1.1-.1.19-.15l.1-.1a.81.81,0,0,1,.29-.29l.15-.14c.1-.1.05-.2.1-.3s0-.1.1-.14.1-.1.1-.15.1-.14.1-.19v-.1c0-.05.05-.1.1-.15s.05-.14.1-.19a.74.74,0,0,1,.19-.2l.1-.1a1.08,1.08,0,0,1,.2-.29l.14-.14c0-.05,0-.05,0-.05V46c0-.05,0-.1.15-.25s.29-.24.43-.39a1.12,1.12,0,0,0,.24-.19s.15-.1.2-.15l.1-.1,0,0v-.15l0,0a0,0,0,0,1,0-.05h0a.19.19,0,0,1-.05-.1v-.1c.05-.05.1-.05.15-.1s.63-.39.67-.44.1,0,.15-.1a.12.12,0,0,0,.05-.1s.1-.1.14-.1,0,0,.1,0a.35.35,0,0,0,.1-.2c.05,0,.05-.1.1-.14a.17.17,0,0,1,.15-.15h.1s.1,0,.14-.1l.15-.1c.05,0,.05-.05.1-.05a.72.72,0,0,0,.24-.1,1.2,1.2,0,0,1,.24-.15l.29-.14a.73.73,0,0,0,.34-.2s.1,0,.15-.1A.3.3,0,0,1,65,42c.1,0,.15-.05.2-.05s0-.1.1-.1l.43-.2a2.35,2.35,0,0,0,.39-.19,2.07,2.07,0,0,0,.34-.15,2,2,0,0,1,.48-.19c.1,0,.15,0,.25-.1s.14,0,.19-.1,0-.05,0-.1,0-.05,0-.1a1,1,0,0,1,.24-.15,4,4,0,0,1,.43-.19.13.13,0,0,1-.11-.15s0,0,0,0,.1-.1.15-.1a1.18,1.18,0,0,1,.19,0s.1,0,.15,0,.1-.05.14-.05a.31.31,0,0,1,.15-.1c.05,0,.14,0,.24-.1l.34-.15a3,3,0,0,1,.39-.14,4,4,0,0,0,.58-.2A1.49,1.49,0,0,0,71,39a2.07,2.07,0,0,0,.34-.15.35.35,0,0,1,.19-.1s.1-.1.15-.1h.14l0,0a.06.06,0,0,1,.05,0,.05.05,0,0,1,0,0,.14.14,0,0,0,.1,0,.35.35,0,0,0,.2,0l.43-.14s.15,0,.2-.1.19-.15.24-.15.1,0,.1,0,.1-.05.19-.1.1-.1.15-.1.1,0,.19,0a.12.12,0,0,0,.1-.05.15.15,0,0,0,.1,0,.25.25,0,0,0,.15,0c.05,0,.1,0,.1-.05s.1,0,.14,0h.1a0,0,0,0,0,0-.05h0a.17.17,0,0,1,.15,0s.1,0,.14,0l0,0H75s.1,0,.1-.05h.15s.1-.1.14-.1,0,0,.1.05a0,0,0,0,1,0,0h0a.14.14,0,0,0,0-.1s0,0,.1,0,.05,0,.05,0a0,0,0,0,0,0,.05h0s.1-.05.14-.05.1,0,.15-.1.1-.05.19-.05h.1s0,0,.1,0a.05.05,0,0,1,.05-.05h0l0,.05,0,0v-.1a.14.14,0,0,1,.19,0s0,.05.1.05a.38.38,0,0,0,.2-.1s.1,0,0-.1H75.94a2.24,2.24,0,0,0-.63.1H75a2.36,2.36,0,0,0-.53.1l-.78.15c-.29,0-.68.14-1,.19a3.7,3.7,0,0,1-.58.1,1.31,1.31,0,0,1-.39.05.24.24,0,0,1-.14-.05s.1,0,.19-.1l.39-.15a1.59,1.59,0,0,1,.39-.1h.24a.17.17,0,0,0,.14,0c.1,0,.2,0,.3,0s.1-.05.19-.05h.44c.1,0,.14,0,.24-.1s.19-.05.29-.1.14-.05.19-.05l.24,0c.1,0,.3,0,.44,0a1.34,1.34,0,0,0,.44-.1l.82-.15a.87.87,0,0,0,.39,0h.24a.58.58,0,0,1,.29-.05h2.14l.43.05c.19,0,.53,0,.87.1a7.27,7.27,0,0,1,.83.1c.19,0,.29,0,.39,0s.19.05.29.05.1,0,.14,0,0,0,.1,0,.1,0,.2,0h.1s0,0,.1,0h.14s.19,0,.24,0,.1.05.15.05,0,0,.1,0h.43l.25.05s.1.1.1.14,0,0-.1,0h-.1a0,0,0,0,0,0,0h0a.23.23,0,0,0,.15.05c.1,0,.19,0,.29,0s.19.05.29.05h.24l0,0h.39a0,0,0,0,1,0,0h0c.05,0,.05.05.14.05s.2,0,.3.1a.42.42,0,0,1,.24,0,1,1,0,0,0,.29.1.33.33,0,0,0,.19,0c.1,0,.2.1.24,0h.15s.1.05.19.1.25.1.44.2.48.29.68.39a3.21,3.21,0,0,1,.48.34,6.17,6.17,0,0,0,.54.48,1.48,1.48,0,0,1,.34.44,5.33,5.33,0,0,1,.33.92.8.8,0,0,1,0,.34.32.32,0,0,1,0,.25,2.91,2.91,0,0,1-.58.82,5.77,5.77,0,0,1-.58.63,6.86,6.86,0,0,1-.68.64,6.87,6.87,0,0,0-.63.58,1,1,0,0,1-.29.24s-.1.1-.14.1l-.15.15a2.66,2.66,0,0,1-.53.34l-.29.14-.29.2c-.15.1-.34.19-.54.34a5.05,5.05,0,0,1-.53.24,4.44,4.44,0,0,0-.49.24,4.4,4.4,0,0,1-.77.34c-.29.1-.49.25-.68.3a1.07,1.07,0,0,1-.39.14,2.26,2.26,0,0,1-.39.15c-.14,0-.34.14-.53.19a1.36,1.36,0,0,0-.48.2,3.54,3.54,0,0,0-.39.14l-.29.15-.34.14a1.76,1.76,0,0,1-.44.15,7.15,7.15,0,0,1-.77.29c-.3.1-.54.2-.78.29a5.54,5.54,0,0,1-.68.25c-.19.05-.29.14-.44.14s-.19,0-.29.1a.64.64,0,0,1-.24.1l-.24.1c-.1.05-.24.05-.39.1a3.66,3.66,0,0,1-.43.15c-.2.05-.44.15-.73.24a6.28,6.28,0,0,1-.73.25,4.76,4.76,0,0,1-.53.19l-.39.15a1.54,1.54,0,0,0-.44.19l-.43.15c-.15,0-.24,0-.29.1a.67.67,0,0,1-.24,0s-.1.05-.15.1-.05,0-.1,0,0,0-.1.05a1,1,0,0,0-.24.1c-.1,0-.15.1-.24.15a2.41,2.41,0,0,1-.63.24h.19a.49.49,0,0,0,.24,0c.1,0,.29-.1.39-.14s.24,0,.39-.1.29,0,.48-.1a1.4,1.4,0,0,1,.39-.1,3.12,3.12,0,0,1,.39-.15,1.34,1.34,0,0,1,.44-.1,3.7,3.7,0,0,1,.58-.1l1-.19a2.23,2.23,0,0,1,.43-.1.46.46,0,0,0,.25-.1l.38-.15a.29.29,0,0,1,.2-.05c.1,0,.14,0,.19,0s.15,0,.24-.1.1,0,.15,0h.44a.12.12,0,0,0,.09-.05.21.21,0,0,1,.1,0h.2s.1,0,.1,0l0,.05a.12.12,0,0,1-.1,0s-.1,0-.1.05,0,0,0,.1.64.05.1.1h.25c.1,0,.19,0,.29,0a.63.63,0,0,0,.29-.1h.43s0,0,.1,0a0,0,0,0,0,0,.05h0s.15,0,.25,0h.14a.14.14,0,0,1,.1,0v.1s0,0,0,.1.05,0,.1,0h.1l-.1,0s0-.05,0-.05,0,0,0-.1h.43c.05,0,.1,0,.1,0v0c0,.05-.1,0-.14,0s-.1,0-.1.05-.05,0-.05,0h0v.12a0,0,0,0,0,0,0H80s0,0,0,0v-.05s.1,0,.19,0h.1s0,0,0,.05l.05,0s.15,0,.24.1h.63v0s-.1.05-.19.05l-.24,0s0,0,.1,0h.34a.16.16,0,0,1,.14.05h0s.1-.05.14,0h.34a.78.78,0,0,1,.34,0H83s.1,0,.1.05a.14.14,0,0,1,.1,0,.56.56,0,0,0,.29.1,1.66,1.66,0,0,1,.29.1,1,1,0,0,0,.24.1s.1,0,.15.1l.1.1h.29a1.4,1.4,0,0,0,.39-.1.45.45,0,0,0,.19,0,.19.19,0,0,0,.12-.07s.1-.05.14-.05a.38.38,0,0,1,.19.05.29.29,0,0,0,.2,0s0,0,.1,0H86a.71.71,0,0,1,.29,0c.05,0,.1.05.14.05h.2A.58.58,0,0,0,87,51.4c.1,0,.19,0,.29,0h.15s0,0,0,0v.1s0,0,0,.1,0,.1,0,.1.1-.05.15-.05.1,0,.19-.1a.25.25,0,0,1,.15,0h.14a1.3,1.3,0,0,0,.44,0c.1,0,.14,0,.24,0s.15,0,.24,0,.15,0,.2.1h.29c.1,0,.24,0,.39,0s.19,0,.29,0,.14,0,.24,0a.48.48,0,0,0,.24,0c.1,0,.19,0,.34,0a4.5,4.5,0,0,0,.73-.15,4.55,4.55,0,0,1,.82-.15,1,1,0,0,1,.39.1s0,0,.1,0a1,1,0,0,1,.24-.15.7.7,0,0,0,.19-.15c.1-.1.15-.05.2-.1s.1,0,.14-.14a1.22,1.22,0,0,1,.25-.2l.24-.24c.1-.05.14-.15.29-.24a1.87,1.87,0,0,0,.29-.34.7.7,0,0,0,.14-.29l.15-.15c.1,0,.14-.19.24-.29a.35.35,0,0,1,.2-.1,1,1,0,0,1,.24-.15.68.68,0,0,0,.24-.29,1.14,1.14,0,0,0,.19-.34,2.07,2.07,0,0,1,.15-.34c0-.1,0-.19.1-.29.19.53.19.39.19.29M89.76,37.65a2.5,2.5,0,0,1,.39.34l.44.43a1.68,1.68,0,0,1,.24.29l.1.1s0,0,0,.1a0,0,0,0,1-.05,0h0l-.15-.15a1,1,0,0,0-.34-.34c0-.05-.14-.05-.19-.1l-.39-.34-.34,0,0-.1s-.43-.1-.48-.1-2.48-1.26-2.57-1.26S85.26,36,85.21,36l-.59-.05c-.1,0-1.94-.34-2-.34s-1-.14-1.17-.19-.68,0-.77-.1-.25-.05-.39-.05-.49,0-.53,0L79,35.16h-.58c-.05,0-.15.05-.2.05s-.29-.05-.43-.05h-.59c-.24,0-1,.05-1.16.05l-1.07,0c-.19.05-.43.05-.68.1s-1.11.1-1.16.14-.53.15-.78.2-1.11.19-1.26.24l-.48.15-.83.24c-.14.05-1.26.39-1.35.39s-.2.05-.3.05H68s0,0,0-.05a0,0,0,0,1,0,0h0s0-.05.1-.05a.77.77,0,0,0,.25-.14,2.29,2.29,0,0,1,.63-.3c.19,0,.24-.43.38-.48s.78.14.83.1l.1-.1a3.36,3.36,0,0,0,.43-.2,1.38,1.38,0,0,1,.49-.1l.63-.14a2.72,2.72,0,0,0,.43-.15c.25,0,.49-.1.83-.14.14,0,.34,0,.53-.1a2,2,0,0,1,.49,0h.72a4.26,4.26,0,0,0,.78-.14h.1a2.27,2.27,0,0,1,.58-.1h1a3.49,3.49,0,0,1,.72.05h1.55c.2,0,.34,0,.54,0s.48,0,.87.1l1.07.15c.29,0,.48,0,.68.1a4.21,4.21,0,0,0,1.16-.24c.63-.29,1.16.68,1.41.78s1,.34,1.16.38.29.15.34.15.1,0,.14,0h.16a4.48,4.48,0,0,1,.58.29,9.6,9.6,0,0,1,.92.54l.82.63c0-.19.24,0,.34.1M88,41.29a.12.12,0,0,1-.1,0c0-.05-.15-.1-.34-.24s-.49-.34-.73-.54-.39-.24-.53-.34-.39-.14-.59-.24a3,3,0,0,0-.58-.24,3.12,3.12,0,0,1-.39-.15,2.17,2.17,0,0,0-.33-.19c-.05,0-.1,0-.15.05s-.58-.25-.68-.25,0-.1-.1-.1l-1.26-.29a2.73,2.73,0,0,0-.48-.1l-.49-.14a2.62,2.62,0,0,1-.53-.2c-.2-.05-.39-.1-.39-.14s.1-.1.24-.15a2.59,2.59,0,0,1,.83.1c.14.05,1.06,0,1.3.05a4,4,0,0,0,.49.15,1.43,1.43,0,0,1,.34.14h0l.58.24c.15.05.78.15,1,.25s1.07.48,1.26.58.34.34.44.39.72.87.82,1l.24.24c.1.1.15.15.1.2h0m-7.76-8c.24,0,.58,0,.83.1s.19.48.29.48h.24s.1,0,0,.1,0,0-.1,0h-.1a.16.16,0,0,0,0,.1s0,0,0,.1h-.19a8.36,8.36,0,0,1-1.12-.14s-.34-.05-.43-.05h-.49c-.14,0-.24,0-.34,0s-.19-.05-.34-.05l-1.31,0h-.48c-.15,0-.29,0-.49,0h-1.1a1.6,1.6,0,0,0-.49.05,3.44,3.44,0,0,0-.63.1h-.53c-.15,0-.29,0-.34-.05s0,0,0-.1v-.1h-.1c-.05,0-.1-.05-.14-.1a.17.17,0,0,1-.05-.15.16.16,0,0,1,.05-.1.52.52,0,0,1,.19-.14c.1,0,.15,0,.19,0a.16.16,0,0,1,.1-.05,1,1,0,0,1,.25,0c.14,0,.29-.05.58-.05A5.63,5.63,0,0,1,75,33h1.36c0-.05,3.59.2,3.88.25M41.75,41.92H43.4c.05,0,.1,0,.1,0a.12.12,0,0,1,0,.1.34.34,0,0,1-.24,0c-.1,0-.19.05-.34.05a2,2,0,0,0-.48.1c-.34.1-.73.24-1,.34l-.39.15a1.63,1.63,0,0,0-.34.19c-.14.1-.24.1-.58.29-.14.1-.39.24-.58.39L39,44c-.15.1-.2.1-.2.15s-.1,0-.1.1l-.1.1a1.12,1.12,0,0,1-.24.19l-.82.58c-.49.34-1.22.83-1.7,1.12s-.68.44-.88.54-.43.24-.63.34l-.38.18-.68.29a.82.82,0,0,0-.25.2,2.17,2.17,0,0,1-.33.19,1.21,1.21,0,0,1-.3.2.22.22,0,0,1-.14,0h-.1a0,0,0,0,1,0,0h0c.05-.05.05-.1.14-.15s.2-.15.34-.24a2.37,2.37,0,0,0,.34-.29,2,2,0,0,1,.39-.25c.12-.09.26-.17.39-.25s.15-.14.1-.19-.1,0-.14,0a.38.38,0,0,0-.15.05q-.08,0,0-.15a2.9,2.9,0,0,0,.29-.19,1.92,1.92,0,0,0,.44-.25c.19-.1.39-.24.58-.34a2.66,2.66,0,0,1,.53-.34l.34-.19a1,1,0,0,0,.24-.15c.1,0,.15-.1.25-.14s.14-.1.19-.15l.14-.14a.64.64,0,0,1,.25-.15l.14-.15a.7.7,0,0,0,.2-.19.45.45,0,0,1,.15-.19s0-.1.1-.1v.1h0c.05,0,.05,0,.05-.1s.1-.05.2-.1a.83.83,0,0,0,.29-.24c.1,0,.14-.15.19-.15s.15-.1.15-.15.1-.24.14-.29a.2.2,0,0,1,.15-.05s.1,0,.1-.1.1,0,.14-.1H39s.1-.05.14-.05l.1-.1a.16.16,0,0,1,0-.1c.05,0,.1,0,.19-.1l.24,0a5,5,0,0,0,.54-.2,2.24,2.24,0,0,1,.39-.14l.42-.13.15-.05h.1a.06.06,0,0,1,0,.05h0a0,0,0,0,0,0,0h.1c.15-.14.2-.14.25-.14M27.11,63v.15c0,.05,0,.1,0,.14s.05.2.05.29a.63.63,0,0,1-.05.3s-.1-.05-.19-.1a.91.91,0,0,1-.24-.2c-.1,0-.2-.14-.29-.19a7.16,7.16,0,0,0-.78-.58c0-.05-.34-.25-.39-.3s-.43-.19-.48-.29a11.54,11.54,0,0,0-1.17-.92c-2.13-.64-.1-1.75,0-1.8s3.78-3.84,3.78-3.4c0,.1-.29,3.3-.24,3.4a10.69,10.69,0,0,1,.1,1.26c0,.15-.15,1.17-.15,1.36a2,2,0,0,1,.05.54V63M24.44,42.21s0,.1,0,.15v.15a.23.23,0,0,1,.05.1s0,0,0,.1,0,.14,0,.19,0,.05,0,.1v.1a.27.27,0,0,1-.05.15.32.32,0,0,1,0,.19,1.33,1.33,0,0,0-.1.34s-.05.1-.05.15v.19c0,.05,0,.1-.05.1s0,.05,0,.1,0,.1,0,.19-.05.1-.05.2.05.14,0,.19a.2.2,0,0,1,0,.15l-.15.29a.81.81,0,0,1-.19.29l-.14.29a1,1,0,0,1-.2.25c-.05,0-.05.1-.1.19a2.35,2.35,0,0,1-.19.39,3.75,3.75,0,0,0-.24.44.63.63,0,0,0-.1.29c-.05.05-.05.15-.1.19s-.05,0-.1,0-.05,0-.05.05v.1a.2.2,0,0,1-.05.15s0,.14-.1.24a1,1,0,0,1-.15.24l-.14.2a.72.72,0,0,0-.1.24.45.45,0,0,0-.05.19,3.54,3.54,0,0,1-.14.39l-.1.1c-.05.05-.1.05-.1.1s0,.05-.05.15-.1.1-.1.15a.12.12,0,0,0-.05.1s0,0-.05.1-.05,0-.1.1a1.12,1.12,0,0,1-.24.19c-.05.05-.1.05-.14.1s-.05.1-.1.15a.44.44,0,0,1-.1.19,1.16,1.16,0,0,1-.25.29l-.19.2s-.1,0-.1.1-.15,0-.19.14-.05.15-.15.2-.1,0-.14.1l-.15.14-.21.2-.25.25c-.1.1-.24.19-.34.29a2.13,2.13,0,0,0-.33.34c-.1.1-.2.14-.3.24l-.24.24a.41.41,0,0,0-.19.2,1.16,1.16,0,0,0-.2.24.57.57,0,0,1-.19.19l-.14.15c-.05,0-.1.1-.1.15v.24a2.47,2.47,0,0,1-.1.29c-.05.1-.05.2-.1.24v.1a.12.12,0,0,0,0,.1v.24a2.17,2.17,0,0,1,0,.25c-.05.1-.05.19-.1.24v.29a1,1,0,0,1-.15.34V57a.25.25,0,0,1-.05.19c-.05,0-.05.05-.14.05a1,1,0,0,1-.29-.1L15.75,57a4.19,4.19,0,0,0-.49-.2c-.19-.05-.34-.14-.53-.19a4.14,4.14,0,0,1-.49-.19c-.19-.1-.43-.15-.58-.25a.71.71,0,0,1-.29-.14c-.1,0-.19,0-.24-.1a3.65,3.65,0,0,1-.53-.25L12,55.53a4.56,4.56,0,0,0-.71-.24,4.06,4.06,0,0,0-.59-.19c-.19-.05-.43-.15-.77-.25l-1.21-.34a3.35,3.35,0,0,0-.83-.14,1.87,1.87,0,0,0-.53,0s0,0,0-.1.1-.15.19-.25A2.49,2.49,0,0,0,8,53.59a4.66,4.66,0,0,0,.39-.49.81.81,0,0,1,.29-.29,2.17,2.17,0,0,0,.24-.29A2.63,2.63,0,0,1,9.26,52c.14-.15.24-.29.39-.44a7.4,7.4,0,0,0,.48-.58c.2-.24.44-.54.78-.92s.68-.78,1.11-1.22l1.21-1.21.68-.69.29-.29.1-.1s0-.1.1-.14,0,0,.15-.1.19-.15.44-.39.63-.58.87-.83l.39-.39.38-.39c.15-.14.3-.24.44-.38s.34-.34.63-.59.63-.58.87-.78a5.46,5.46,0,0,0,.44-.38c.1-.1.19-.15.29-.25s.15-.14.24-.19a2.19,2.19,0,0,1,.39-.29,4.83,4.83,0,0,1,.49-.34c.24-.15.63-.44.82-.59s.29-.19.39-.24a2.35,2.35,0,0,1,.39-.19,2.23,2.23,0,0,0,.33-.2c.1-.05.15-.1.34-.19s.44-.24.63-.34l.49-.25A3.54,3.54,0,0,1,24.2,39a.64.64,0,0,1,.24-.1.05.05,0,0,1,0,0h0v.44s0,.1,0,.14,0,.05,0,.1v.34a.16.16,0,0,0,.05.1,0,0,0,0,1,.05,0h0v.29c0,.15.05.34,0,.44s0,.1-.05.1a0,0,0,0,1-.05.05h0a.14.14,0,0,0,.05.1c0,.05.05.05.05.1s0,.1-.05.24v.2c0,.1.05.14.05.19s.05.1.05.15a.45.45,0,0,1-.05.19c0,.05-.05.05-.05.1-.24-.15-.24,0-.19,0M13.58,57.33l.63.34a3.36,3.36,0,0,0,.43.2,1.42,1.42,0,0,0,.29.1c.05,0,.1,0,.1.1s.05,0,.05.1-.05,0-.05,0-.1-.05-.14-.05l-.34-.2-.34-.14c-.05-.05-.14-.05-.29-.1a2.87,2.87,0,0,1-.39-.2l-.29-.14-.44-.2a2.16,2.16,0,0,1-.48-.24,2.92,2.92,0,0,0-.49-.19c-.14-.05-.19-.1-.33-.15a4.17,4.17,0,0,0-.44-.19,3.39,3.39,0,0,0-.53-.2c-.25-.1-.54-.19-.78-.29a3.93,3.93,0,0,0-.58-.19,5.54,5.54,0,0,1-.68-.25c-.24-.1-.44-.14-.53-.19a.44.44,0,0,0-.15,0h0a.34.34,0,0,1-.19-.05c-.05,0-.15,0-.19,0a.17.17,0,0,1-.15-.05s-.05,0,0,0h.15a.52.52,0,0,1,.24,0l.24.05a.4.4,0,0,0,.24,0c.1.05.29.05.63.15s.78.24,1.17.34a7.15,7.15,0,0,0,.77.29l.44.14.29.15c0,.05.1.05.19.1a5.18,5.18,0,0,0,.49.19c.24.1.48.2.68.3l.38.19a1,1,0,0,0,.44.34M8.05,55.88c.24.1.63.2.92.34a3.16,3.16,0,0,1,.68.29,3.6,3.6,0,0,0,.39.2c.1,0,.19,0,.24.1a.09.09,0,0,1,.1.1.16.16,0,0,1-.1.05s-.1-.05-.14-.05-.1,0-.2-.1-.24-.1-.43-.2-.36-.15-.54-.24-.29-.14-.43-.19S8.15,56,8,56a1.16,1.16,0,0,1-.44-.19c-.1,0,0,0,0,0h.15a3.66,3.66,0,0,1,.43.15"/></g></g></svg>